<?xml version="1.0" standalone="no"?>
<!DOCTYPE svg PUBLIC "-//W3C//DTD SVG 20010904//EN"
 "http://www.w3.org/TR/2001/REC-SVG-20010904/DTD/svg10.dtd">
<svg version="1.0" xmlns="http://www.w3.org/2000/svg"
 width="512.000000pt" height="512.000000pt" viewBox="0 0 512.000000 512.000000"
 preserveAspectRatio="xMidYMid meet">

<g transform="translate(0.000000,512.000000) scale(0.100000,-0.100000)"
fill="#000000" stroke="none">
<path d="M1985 4843 c-55 -8 -116 -22 -135 -31 -109 -53 -107 -212 4 -266 38
-18 42 -18 171 -1 178 24 473 17 619 -15 210 -45 411 -125 595 -238 93 -58
131 -64 191 -34 74 37 104 138 61 209 -24 39 -130 108 -281 184 -196 98 -416
165 -638 194 -144 19 -452 18 -587 -2z"/>
<path d="M3800 4187 c-180 -61 -308 -199 -355 -382 -44 -174 11 -371 140 -500
234 -233 622 -204 811 60 215 303 70 725 -285 829 -83 24 -230 21 -311 -7z"/>
<path d="M2224 4179 c-122 -36 -140 -206 -29 -271 19 -10 70 -22 130 -28 197
-21 396 -70 564 -140 85 -35 132 -38 181 -11 39 20 80 83 80 123 0 38 -17 79
-47 110 -65 69 -469 189 -713 212 -36 4 -81 9 -100 11 -19 2 -49 -1 -66 -6z"/>
<path d="M69 2637 c-47 -31 -71 -81 -66 -136 6 -53 31 -89 83 -118 l39 -22 28
-208 c74 -543 85 -613 107 -644 45 -62 1 -59 897 -59 793 0 819 1 850 20 60
36 62 45 120 463 29 216 56 402 58 414 3 12 15 25 28 28 12 4 33 17 45 29 71
64 69 159 -3 226 l-27 25 -1062 3 -1063 2 -34 -23z"/>
<path d="M2882 2640 c-86 -53 -96 -167 -20 -236 12 -12 33 -25 45 -29 13 -3
25 -16 28 -28 3 -12 28 -193 56 -402 31 -235 57 -393 67 -415 10 -19 32 -45
51 -57 l34 -23 819 0 c898 0 853 -3 898 59 22 31 33 101 107 644 l28 208 39
22 c52 29 77 65 83 118 5 55 -19 105 -66 136 l-34 23 -1051 0 c-1031 0 -1052
0 -1084 -20z"/>
<path d="M360 1138 c0 -7 13 -143 30 -302 27 -274 31 -293 60 -352 61 -125
177 -207 318 -225 90 -11 688 -11 780 1 141 18 255 100 314 225 29 62 32 85
59 348 16 155 29 290 29 300 0 16 -44 17 -795 17 -629 0 -795 -3 -795 -12z"/>
<path d="M3170 1133 c0 -10 13 -145 29 -300 27 -263 30 -286 59 -348 58 -124
174 -207 314 -225 91 -12 690 -12 780 -1 74 10 158 44 213 88 53 41 110 132
129 205 12 46 66 532 66 592 0 3 -358 6 -795 6 -751 0 -795 -1 -795 -17z"/>
</g>
</svg>
