<?xml version="1.0" standalone="no"?>
<!DOCTYPE svg PUBLIC "-//W3C//DTD SVG 20010904//EN"
 "http://www.w3.org/TR/2001/REC-SVG-20010904/DTD/svg10.dtd">
<svg version="1.0" xmlns="http://www.w3.org/2000/svg"
 width="512.000000pt" height="512.000000pt" viewBox="0 0 512.000000 512.000000"
 preserveAspectRatio="xMidYMid meet">

<g transform="translate(0.000000,512.000000) scale(0.100000,-0.100000)"
fill="#000000" stroke="none">
<path d="M1070 5105 c-342 -50 -668 -191 -918 -398 -81 -67 -92 -82 -92 -125
0 -68 76 -86 138 -33 215 184 447 306 704 371 312 78 585 65 865 -41 l62 -24
28 21 c36 27 43 84 15 112 -26 26 -171 77 -289 102 -129 27 -380 35 -513 15z"/>
<path d="M2458 5110 c-201 -36 -372 -158 -451 -320 -97 -199 -99 -392 -7 -576
142 -282 468 -417 763 -315 94 33 167 80 243 156 125 126 193 302 181 469 -12
164 -73 302 -182 412 -76 76 -172 132 -275 159 -69 19 -210 27 -272 15z m193
-150 c84 -16 192 -72 249 -130 65 -64 116 -169 131 -270 21 -138 -25 -288
-121 -393 -48 -53 -129 -103 -203 -127 -282 -90 -569 90 -619 388 -53 317 239
593 563 532z"/>
<path d="M2293 4558 c-31 -15 -42 -55 -32 -117 21 -133 154 -251 282 -251 49
0 75 14 88 47 20 53 -23 103 -89 103 -63 0 -126 67 -138 147 -10 67 -57 97
-111 71z"/>
<path d="M1140 4834 c-120 -21 -142 -28 -160 -52 -23 -28 -24 -41 -9 -75 19
-41 47 -48 141 -31 150 28 408 -1 550 -60 52 -22 75 -20 103 9 31 30 32 69 2
99 -26 26 -142 67 -257 92 -72 15 -319 27 -370 18z"/>
<path d="M1156 3735 c-92 -32 -167 -133 -169 -227 -1 -29 2 -70 6 -90 l8 -38
-406 0 c-447 0 -448 0 -513 -63 -55 -52 -76 -103 -76 -178 0 -53 5 -74 28
-113 33 -56 89 -99 151 -115 33 -8 45 -16 45 -30 0 -35 71 -686 76 -705 3 -10
21 -35 38 -55 32 -36 33 -38 50 -216 26 -256 30 -274 70 -311 l33 -32 72 -678
c45 -430 77 -695 88 -723 20 -55 65 -106 117 -134 l41 -22 1745 0 1745 0 41
22 c52 28 107 91 122 140 6 21 21 129 33 241 l22 203 -23 24 c-16 17 -34 25
-57 25 -35 0 -73 -29 -73 -56 0 -8 -9 -99 -21 -202 -21 -196 -30 -225 -75
-242 -15 -6 -204 -10 -450 -10 -424 0 -425 0 -414 20 9 18 59 450 137 1205
l18 170 453 3 c248 1 452 -1 452 -5 0 -5 -14 -134 -30 -288 -29 -274 -30 -281
-12 -305 14 -18 30 -26 60 -28 65 -5 68 4 103 339 l32 294 38 42 c22 24 39 48
39 55 0 7 11 109 24 226 22 203 24 213 50 237 14 13 31 36 36 50 6 15 27 186
48 381 l37 354 52 15 c205 60 232 344 42 439 l-53 26 -409 0 -409 0 9 33 c31
123 -24 252 -132 310 l-40 22 -1052 3 c-1044 2 -1053 2 -1073 -18 -30 -30 -27
-83 6 -109 27 -21 30 -21 1048 -21 994 0 1022 -1 1053 -20 45 -27 62 -84 38
-133 -34 -72 65 -67 -1403 -67 -726 0 -1333 3 -1351 6 -92 19 -117 146 -38
194 28 17 51 20 173 20 128 0 144 2 168 21 33 26 36 79 6 109 -18 18 -33 20
-177 20 -108 -1 -170 -5 -197 -15z m78 -527 c3 -13 8 -53 11 -90 l7 -68 -512
0 c-559 0 -555 0 -579 58 -16 37 -5 77 26 102 25 19 42 20 534 20 l509 0 4
-22z m2501 -10 c-3 -18 -21 -186 -40 -373 -20 -187 -38 -346 -40 -353 -4 -10
-228 -12 -1097 -10 l-1093 3 -22 205 c-12 113 -30 285 -41 383 l-18 177 1178
0 1179 0 -6 -32z m1206 3 c31 -31 35 -53 19 -95 -21 -56 -24 -56 -580 -56
l-512 0 6 53 c4 28 9 69 12 90 l6 37 510 0 510 0 29 -29z m-3671 -318 c0 -10
11 -118 24 -240 25 -229 35 -265 80 -299 17 -14 25 -33 30 -66 l6 -48 -480 0
-479 0 -5 33 c-7 39 -66 598 -66 621 0 15 40 16 445 16 417 0 445 -1 445 -17z
m3470 -5 c0 -30 -59 -597 -66 -625 l-4 -23 -479 0 -479 0 6 47 c4 36 13 54 37
78 18 17 38 48 44 70 9 35 51 409 51 458 0 16 28 17 445 17 l445 0 0 -22z
m-1173 -605 c-3 -21 -14 -118 -23 -216 l-18 -177 -966 2 -965 3 -17 165 c-9
91 -19 186 -23 213 l-6 47 1012 0 1012 0 -6 -37z m-2131 -303 c16 -149 20
-164 65 -204 75 -69 94 -66 -446 -66 l-485 0 -4 23 c-6 25 -36 313 -36 340 0
16 26 17 448 15 l447 -3 11 -105z m3153 73 c0 -21 -8 -105 -17 -188 l-17 -150
-487 -3 c-529 -2 -524 -3 -459 50 49 39 60 68 71 178 6 58 13 115 16 128 l4
22 445 0 445 0 -1 -37z m-1159 -338 c0 -49 -152 -1447 -160 -1478 -8 -25 -22
-44 -43 -57 -31 -19 -55 -20 -664 -20 -456 0 -639 3 -657 12 -55 24 -54 18
-137 797 -43 405 -79 742 -79 749 0 9 181 12 870 12 765 0 870 -2 870 -15z
m-1806 -807 c37 -359 74 -674 81 -700 l13 -48 -423 0 c-245 0 -434 4 -449 10
-14 5 -32 19 -40 32 -10 16 -34 208 -80 648 -37 344 -69 644 -72 668 l-6 42
454 0 454 0 68 -652z"/>
</g>
</svg>
