<?xml version="1.0" standalone="no"?>
<!DOCTYPE svg PUBLIC "-//W3C//DTD SVG 20010904//EN"
 "http://www.w3.org/TR/2001/REC-SVG-20010904/DTD/svg10.dtd">
<svg version="1.0" xmlns="http://www.w3.org/2000/svg"
 width="512.000000pt" height="512.000000pt" viewBox="0 0 512.000000 512.000000"
 preserveAspectRatio="xMidYMid meet">

<g transform="translate(0.000000,512.000000) scale(0.100000,-0.100000)"
fill="#000000" stroke="none">
<path d="M455 5108 c-91 -17 -213 -84 -286 -157 -76 -76 -141 -196 -158 -295
-15 -83 -15 -4109 0 -4192 17 -99 82 -219 158 -295 76 -76 196 -141 295 -158
83 -15 4109 -15 4192 0 99 17 219 82 295 158 76 76 141 196 158 295 7 40 11
440 11 1218 l0 1158 -285 0 -285 0 0 -1135 0 -1135 -1990 0 -1990 0 0 1990 0
1990 1420 0 1420 0 0 285 0 285 -1452 -1 c-859 -1 -1473 -5 -1503 -11z"/>
<path d="M3495 3440 l-1220 -1220 -440 440 -440 440 -200 -200 -200 -200 640
-640 640 -640 1422 1422 1423 1423 -197 197 c-109 109 -200 198 -203 198 -3 0
-554 -549 -1225 -1220z"/>
</g>
</svg>
