<?xml version="1.0" standalone="no"?>
<!DOCTYPE svg PUBLIC "-//W3C//DTD SVG 20010904//EN"
 "http://www.w3.org/TR/2001/REC-SVG-20010904/DTD/svg10.dtd">
<svg version="1.0" xmlns="http://www.w3.org/2000/svg"
 width="512.000000pt" height="512.000000pt" viewBox="0 0 512.000000 512.000000"
 preserveAspectRatio="xMidYMid meet">

<g transform="translate(0.000000,512.000000) scale(0.100000,-0.100000)"
fill="#000000" stroke="none">
<path d="M3787 5102 c-9 -10 -21 -32 -27 -48 l-10 -29 -108 0 c-122 0 -159
-14 -225 -81 -57 -59 -80 -117 -81 -199 -1 -89 33 -162 103 -228 l49 -46 -88
-188 -88 -188 -1354 -5 c-1272 -5 -1356 -6 -1381 -23 -56 -37 -80 -108 -54
-167 8 -22 382 -419 961 -1024 l946 -988 0 -824 0 -824 -275 0 c-303 0 -320
-3 -350 -60 -19 -37 -19 -73 1 -115 32 -68 7 -66 768 -63 l686 3 31 31 c57 57
47 154 -21 189 -24 12 -78 15 -305 15 l-275 0 0 824 0 823 950 993 c679 710
952 1002 961 1027 22 67 -12 142 -77 169 -27 11 -137 14 -573 14 l-539 0 78
168 78 167 83 -3 c106 -5 179 20 241 81 66 64 83 107 83 207 0 75 -3 91 -29
138 -16 29 -49 71 -74 93 l-44 41 21 46 c17 40 18 50 7 67 -18 27 -48 30 -69
7z m-658 -1399 c-28 -60 -69 -147 -91 -195 l-41 -88 -720 -2 -720 -3 498 -520
c274 -286 501 -520 505 -520 4 0 231 234 505 520 l498 520 -226 3 c-172 2
-227 5 -227 15 1 6 38 93 84 192 l84 180 432 3 432 2 -78 -83 c-225 -239
-1499 -1567 -1504 -1567 -5 0 -1324 1374 -1508 1571 l-74 79 1101 0 1100 0
-50 -107z"/>
</g>
</svg>
