<?xml version="1.0" standalone="no"?>
<!DOCTYPE svg PUBLIC "-//W3C//DTD SVG 20010904//EN"
 "http://www.w3.org/TR/2001/REC-SVG-20010904/DTD/svg10.dtd">
<svg version="1.0" xmlns="http://www.w3.org/2000/svg"
 width="512.000000pt" height="512.000000pt" viewBox="0 0 512.000000 512.000000"
 preserveAspectRatio="xMidYMid meet">

<g transform="translate(0.000000,512.000000) scale(0.100000,-0.100000)"
fill="#000000" stroke="none">
<path d="M2112 5106 c-245 -40 -391 -141 -442 -305 -22 -68 -26 -156 -10 -210
8 -30 6 -43 -17 -90 -23 -47 -27 -70 -28 -141 0 -75 4 -92 31 -150 80 -166
230 -257 483 -294 57 -9 111 -22 120 -30 31 -28 146 -75 223 -90 45 -9 128
-16 198 -16 107 0 122 2 140 20 39 39 17 111 -37 124 -23 6 -14 12 68 39 179
61 295 147 319 239 24 88 -5 184 -77 259 -30 32 -35 43 -37 96 -4 107 -82 199
-201 238 -78 25 -238 45 -370 45 -259 0 -452 -43 -669 -148 -5 -3 -6 12 -1 34
21 112 107 182 270 220 119 28 358 26 480 -4 130 -32 260 -85 364 -148 50 -29
101 -54 114 -54 33 0 67 40 67 77 0 41 -40 74 -169 142 -126 65 -211 97 -341
127 -132 31 -354 40 -478 20z m572 -431 c107 -16 180 -45 197 -77 6 -11 9 -21
7 -23 -2 -2 -41 6 -88 17 -117 27 -312 29 -395 4 -125 -38 -228 -112 -282
-203 -14 -24 -31 -43 -37 -43 -54 0 -241 143 -234 179 2 8 35 32 73 52 172 92
501 133 759 94z m-7 -216 c125 -16 126 -17 51 -55 -109 -55 -227 -85 -362 -91
-116 -6 -118 -6 -108 14 15 26 74 78 113 99 37 19 139 42 191 43 20 1 72 -4
115 -10z m-723 -214 c48 -25 94 -45 101 -45 7 0 15 -18 18 -42 3 -24 9 -53 12
-65 7 -21 6 -22 -42 -9 -164 43 -263 133 -280 252 l-6 48 54 -47 c30 -26 94
-68 143 -92z m1044 85 c48 -71 21 -120 -101 -181 -132 -67 -242 -91 -443 -96
l-171 -5 -20 28 c-10 16 -24 41 -30 55 l-11 26 136 6 c213 8 397 66 547 171
28 19 55 34 60 32 6 -1 20 -17 33 -36z"/>
<path d="M3225 3906 c-96 -46 -163 -143 -167 -246 -2 -44 1 -55 21 -71 30 -24
76 -24 100 0 10 10 22 38 26 62 13 82 66 129 143 129 144 0 193 -185 69 -260
-18 -11 -46 -20 -63 -20 -18 0 -42 -9 -55 -19 -21 -17 -24 -30 -27 -100 -5
-89 8 -137 39 -146 18 -6 17 -9 -11 -35 -37 -35 -39 -72 -5 -105 31 -32 74
-33 103 -2 29 31 29 77 -2 106 l-24 22 24 24 c18 18 24 35 24 69 0 43 2 45 37
57 59 19 148 115 167 179 29 99 13 192 -49 273 -76 100 -235 138 -350 83z"/>
<path d="M2370 3703 c-75 -7 -160 -35 -180 -61 -23 -28 -24 -41 -9 -75 16 -36
54 -50 94 -37 99 33 214 29 302 -10 61 -27 145 -110 176 -174 94 -191 12 -424
-181 -514 -50 -24 -70 -27 -157 -27 -90 0 -106 3 -160 29 -77 38 -149 111
-183 184 -34 74 -42 197 -18 268 21 63 20 107 -2 127 -25 22 -85 22 -104 0
-50 -57 -74 -262 -43 -369 9 -33 26 -77 36 -98 10 -22 19 -41 19 -43 0 -2 -21
-3 -47 -3 -205 -1 -394 -139 -454 -331 -17 -53 -19 -94 -19 -322 l0 -261 -304
-306 c-297 -298 -305 -306 -321 -364 -38 -132 21 -263 145 -320 63 -29 160
-27 220 3 29 15 136 113 308 284 l262 262 0 -160 c0 -88 3 -297 6 -465 7 -341
7 -340 74 -340 68 0 75 17 78 216 l4 174 509 0 509 0 0 -464 0 -465 26 -20
c43 -34 86 -26 109 20 13 24 15 117 15 599 l0 572 -29 29 c-35 34 -59 36 -95
8 -22 -18 -26 -28 -26 -75 l0 -54 -512 2 -513 3 0 485 c0 376 -3 490 -13 507
-15 28 -56 39 -91 27 -40 -14 -50 -60 -50 -234 l-1 -155 -210 -210 -210 -210
-82 83 -83 82 210 210 210 210 5 303 5 302 29 53 c36 65 82 107 156 141 48 22
71 26 183 29 l128 4 68 -36 c88 -46 167 -66 261 -66 102 0 213 32 283 82 26
18 40 20 165 16 111 -4 146 -9 184 -26 70 -31 131 -92 164 -165 l29 -62 -3
-284 -4 -283 213 -214 214 -214 -83 -83 -82 -82 -209 209 -210 210 -3 179 c-3
174 -4 179 -27 198 -32 26 -73 24 -99 -4 -22 -23 -22 -29 -22 -320 0 -284 1
-298 20 -317 36 -36 102 -21 121 27 10 26 16 20 272 -234 169 -168 278 -269
307 -284 69 -35 168 -33 239 6 62 34 114 98 132 163 14 52 7 137 -16 183 -9
19 -152 170 -318 336 l-300 301 6 221 c3 123 1 250 -4 288 -26 186 -172 343
-360 388 -35 8 -85 15 -112 15 l-47 0 19 38 c53 104 68 271 35 382 -52 176
-193 317 -364 363 -61 17 -136 25 -190 20z m-1225 -2393 l79 -80 -39 -40 c-75
-76 -145 -88 -198 -32 -30 31 -42 71 -33 108 6 24 91 124 105 124 4 0 42 -36
86 -80z m2672 38 c48 -51 63 -77 63 -113 0 -65 -70 -123 -134 -111 -19 4 -55
27 -87 55 l-54 49 80 81 c44 45 82 81 85 81 3 0 24 -19 47 -42z"/>
<path d="M3973 3640 c-135 -27 -218 -133 -147 -189 36 -28 53 -26 105 9 34 23
55 30 92 30 63 0 102 -23 128 -78 66 -136 -94 -261 -215 -168 -58 44 -89 37
-164 -38 -58 -59 -64 -68 -60 -100 4 -33 3 -34 -28 -29 -66 11 -111 -80 -64
-127 48 -48 136 -10 128 55 -4 31 -2 33 29 32 24 -1 42 8 67 32 34 33 34 33
66 16 88 -45 223 -25 304 46 70 62 100 126 100 220 1 65 -3 84 -29 134 -58
113 -191 179 -312 155z"/>
<path d="M2220 560 c-21 -21 -26 -60 -11 -88 5 -10 37 -31 70 -47 l61 -29 0
-173 c0 -171 0 -174 25 -198 31 -32 69 -32 100 0 25 24 25 27 25 194 l0 171
50 25 c28 14 60 35 70 45 26 26 26 74 0 100 -28 28 -74 25 -140 -9 l-55 -29
-57 29 c-67 34 -110 37 -138 9z"/>
<path d="M1777 352 c-14 -16 -17 -43 -17 -165 0 -138 1 -147 22 -167 28 -25
68 -26 95 0 28 25 36 84 31 209 -3 80 -7 104 -22 120 -25 27 -86 28 -109 3z"/>
</g>
</svg>
