<?xml version="1.0" standalone="no"?>
<!DOCTYPE svg PUBLIC "-//W3C//DTD SVG 20010904//EN"
 "http://www.w3.org/TR/2001/REC-SVG-20010904/DTD/svg10.dtd">
<svg version="1.0" xmlns="http://www.w3.org/2000/svg"
 width="512.000000pt" height="512.000000pt" viewBox="0 0 512.000000 512.000000"
 preserveAspectRatio="xMidYMid meet">

<g transform="translate(0.000000,512.000000) scale(0.100000,-0.100000)"
fill="#000000" stroke="none">
<path d="M2410 5095 c-299 -61 -536 -287 -610 -579 -18 -71 -20 -113 -20 -386
0 -337 4 -365 62 -470 17 -30 53 -83 81 -118 l50 -64 -78 -78 c-51 -52 -109
-97 -169 -132 -166 -98 -277 -231 -335 -406 -32 -95 -59 -272 -67 -436 l-7
-146 -401 2 -401 3 -3 190 -2 190 105 125 c74 88 110 124 123 121 9 -2 58 -4
107 -5 139 -2 190 30 324 199 73 92 96 156 89 254 -12 165 -152 295 -318 294
-120 -1 -189 -39 -293 -165 -96 -114 -122 -172 -121 -268 0 -55 6 -88 22 -124
l22 -48 -121 -143 c-67 -80 -124 -158 -129 -177 -6 -18 -10 -126 -10 -240 l0
-208 -52 0 c-103 -1 -202 -70 -238 -167 -16 -43 -20 -78 -20 -182 0 -158 14
-206 80 -272 58 -58 120 -79 232 -79 43 0 78 -2 78 -5 0 -33 377 -1468 392
-1493 11 -18 37 -41 59 -52 38 -20 67 -20 1719 -20 1652 0 1681 0 1719 20 22
11 48 34 59 52 15 25 392 1460 392 1493 0 3 35 5 78 5 112 0 174 21 232 79 66
66 80 114 80 271 0 146 -13 196 -67 259 -47 55 -104 83 -183 90 l-65 6 -5 236
-5 236 -122 145 -123 145 22 49 c32 72 31 180 -3 254 -33 69 -152 213 -209
251 -119 80 -283 68 -390 -28 -69 -62 -102 -129 -108 -219 -7 -104 14 -156
109 -274 85 -105 144 -151 222 -171 46 -11 154 -8 188 5 11 5 43 -26 117 -116
l102 -122 0 -198 0 -198 -399 0 -398 0 -7 139 c-23 474 -128 690 -415 857 -47
27 -108 75 -156 124 l-78 79 27 33 c63 77 124 180 145 245 21 67 22 81 19 399
l-3 329 -31 87 c-17 48 -50 118 -72 155 -167 280 -507 432 -822 368z m340
-219 c129 -44 238 -133 309 -251 55 -90 74 -157 79 -273 l4 -104 -48 7 c-107
15 -260 57 -429 120 -354 131 -463 143 -620 66 -33 -17 -61 -29 -62 -27 -2 1
4 28 12 59 54 209 226 374 440 423 88 20 224 12 315 -20z m-413 -601 c34 -8
147 -46 251 -84 202 -75 337 -112 470 -131 l82 -12 0 -107 c0 -97 -2 -111 -30
-170 -39 -82 -174 -219 -277 -280 -201 -120 -339 -120 -543 -1 -104 60 -240
196 -280 281 -29 62 -30 68 -30 210 l0 147 55 56 c99 101 170 122 302 91z
m-1334 -837 c28 -14 57 -69 57 -109 0 -41 -32 -91 -114 -175 -48 -50 -56 -54
-98 -54 -78 0 -138 69 -124 144 9 48 130 187 176 203 35 11 69 8 103 -9z
m3240 0 c30 -15 145 -158 152 -189 9 -41 -11 -94 -46 -124 -23 -19 -42 -25
-77 -25 -42 0 -50 4 -98 54 -117 121 -138 177 -91 247 35 52 101 67 160 37z
m-2021 -137 c51 -27 114 -56 140 -66 l47 -17 -56 -112 c-30 -61 -57 -113 -59
-115 -2 -2 -51 41 -110 95 -59 54 -120 111 -137 125 l-31 26 53 56 c30 32 55
57 57 57 2 0 45 -22 96 -49z m828 -8 l52 -57 -29 -26 c-17 -14 -78 -70 -137
-124 -59 -54 -108 -97 -110 -95 -2 2 -29 54 -59 115 l-56 111 67 27 c37 14 99
44 137 66 39 21 73 39 76 40 4 0 30 -26 59 -57z m-980 -373 c220 -204 240
-216 299 -186 26 14 46 45 109 171 42 85 79 155 82 155 3 0 40 -70 82 -155 63
-126 83 -157 109 -171 59 -30 79 -18 299 186 113 104 210 189 215 190 6 0 34
-16 64 -36 181 -122 249 -289 267 -664 l7 -130 -1041 0 -1042 0 0 69 c0 90 17
258 35 346 33 168 100 280 214 363 40 28 78 52 85 52 6 -1 103 -86 216 -190z
m2830 -860 c18 -18 20 -33 20 -130 0 -97 -2 -112 -20 -130 -20 -20 -33 -20
-965 -20 -1027 0 -987 2 -1013 -55 -15 -33 -15 -57 0 -90 26 -57 1 -55 833
-55 559 0 765 -3 765 -11 0 -6 -77 -315 -172 -685 l-171 -674 -1617 0 -1617 0
-171 674 c-95 370 -172 679 -172 685 0 8 206 11 765 11 643 0 770 2 794 14 66
35 66 137 0 172 -24 12 -175 14 -974 14 -932 0 -945 0 -965 20 -18 18 -20 33
-20 130 0 97 2 112 20 130 20 20 33 20 2340 20 2307 0 2320 0 2340 -20z"/>
<path d="M2511 1766 c-90 -50 -50 -186 55 -186 35 0 94 59 94 94 0 80 -80 130
-149 92z"/>
<path d="M1527 1284 c-65 -20 -121 -78 -141 -145 -22 -74 -23 -413 -1 -486 20
-68 80 -128 148 -148 76 -23 1978 -23 2054 0 68 20 128 80 148 148 21 72 21
412 0 484 -20 68 -80 128 -148 148 -75 22 -1987 21 -2060 -1z m2011 -196 c8
-8 12 -66 12 -193 0 -127 -4 -185 -12 -193 -17 -17 -1939 -17 -1956 0 -8 8
-12 66 -12 193 0 127 4 185 12 193 17 17 1939 17 1956 0z"/>
</g>
</svg>
