<?xml version="1.0" standalone="no"?>
<!DOCTYPE svg PUBLIC "-//W3C//DTD SVG 20010904//EN"
 "http://www.w3.org/TR/2001/REC-SVG-20010904/DTD/svg10.dtd">
<svg version="1.0" xmlns="http://www.w3.org/2000/svg"
 width="512.000000pt" height="512.000000pt" viewBox="0 0 512.000000 512.000000"
 preserveAspectRatio="xMidYMid meet">

<g transform="translate(0.000000,512.000000) scale(0.100000,-0.100000)"
fill="#000000" stroke="none">
<path d="M1345 4471 c-31 -13 -55 -46 -61 -82 -4 -26 19 -99 99 -319 57 -157
123 -348 146 -425 23 -77 44 -146 46 -153 3 -8 -36 -32 -108 -67 -138 -66
-302 -158 -392 -218 l-68 -46 -42 57 c-147 198 -380 333 -666 387 -46 8 -115
16 -154 17 -140 4 -162 -48 -135 -312 37 -354 139 -623 306 -809 40 -44 42
-50 27 -62 -32 -27 -129 -166 -170 -245 -83 -159 -132 -332 -158 -559 -27
-238 -18 -307 45 -340 36 -19 69 -19 190 0 214 32 412 114 555 228 69 56 100
89 186 200 16 21 17 21 95 -30 155 -100 387 -221 602 -313 96 -41 122 -57 119
-69 -3 -9 -17 -43 -31 -77 -35 -84 -57 -214 -63 -379 l-6 -140 27 -32 c36 -43
69 -48 218 -33 389 37 709 161 919 357 l64 61 95 6 c652 47 1185 286 1625 730
66 66 146 153 176 191 137 172 289 412 289 456 0 50 -140 274 -280 448 -395
490 -927 801 -1546 903 l-132 21 -75 72 c-272 263 -815 461 -1547 565 -149 22
-166 23 -195 11z m384 -257 c419 -73 813 -202 1035 -337 l59 -36 -34 -5 c-19
-3 -63 -8 -99 -11 -168 -16 -469 -95 -724 -189 -98 -36 -181 -66 -185 -66 -5
0 -16 30 -26 68 -19 72 -111 345 -169 505 -29 81 -33 97 -19 97 9 0 82 -12
162 -26z m1291 -594 c334 -21 613 -95 890 -234 376 -189 706 -493 936 -862
l45 -73 -75 -113 c-104 -157 -192 -265 -321 -393 -189 -188 -365 -315 -600
-430 -323 -158 -629 -230 -985 -229 -196 0 -287 11 -485 61 -447 111 -1106
411 -1354 616 -57 48 -97 62 -134 48 -29 -11 -46 -33 -87 -106 -68 -125 -164
-220 -295 -291 -82 -44 -204 -88 -289 -103 l-49 -9 7 86 c25 326 149 608 331
751 36 29 71 63 77 76 18 40 2 92 -40 122 -153 114 -264 291 -322 508 -24 93
-50 256 -50 316 l0 41 43 -7 c74 -13 200 -56 278 -96 142 -74 246 -176 319
-317 58 -110 115 -118 221 -32 207 167 719 416 1129 548 215 70 389 108 547
121 54 5 103 9 108 9 6 1 75 -3 155 -8z m-713 -2460 c78 -21 183 -46 233 -56
l92 -16 -29 -20 c-85 -58 -238 -121 -381 -158 -79 -20 -291 -54 -297 -48 -6 6
17 184 31 243 9 33 26 79 40 102 l24 42 73 -25 c39 -14 136 -42 214 -64z"/>
<path d="M2817 3390 c-32 -25 -106 -168 -147 -285 -74 -211 -105 -405 -105
-655 1 -241 24 -392 91 -605 32 -98 65 -135 123 -135 29 0 47 7 71 30 29 27
32 34 28 77 -3 27 -17 89 -32 138 -46 154 -68 311 -68 490 0 285 51 525 157
737 56 110 59 155 16 199 -36 36 -95 40 -134 9z"/>
<path d="M3243 3386 c-37 -31 -89 -129 -136 -256 -177 -477 -152 -1067 63
-1495 47 -94 60 -113 92 -128 32 -16 43 -17 73 -7 44 15 75 54 75 96 0 19 -19
70 -44 121 -127 253 -184 570 -157 877 19 230 63 398 153 588 42 90 50 113 45
145 -8 49 -36 74 -89 80 -37 4 -49 1 -75 -21z"/>
<path d="M3793 2981 c-165 -41 -219 -251 -93 -365 144 -130 364 -16 348 179
-10 123 -136 215 -255 186z"/>
</g>
</svg>
