<?xml version="1.0" standalone="no"?>
<!DOCTYPE svg PUBLIC "-//W3C//DTD SVG 20010904//EN"
 "http://www.w3.org/TR/2001/REC-SVG-20010904/DTD/svg10.dtd">
<svg version="1.0" xmlns="http://www.w3.org/2000/svg"
 width="512.000000pt" height="512.000000pt" viewBox="0 0 512.000000 512.000000"
 preserveAspectRatio="xMidYMid meet">

<g transform="translate(0.000000,512.000000) scale(0.100000,-0.100000)"
fill="#000000" stroke="none">
<path d="M2575 4885 c-379 -19 -715 -38 -745 -44 -170 -34 -306 -169 -341
-340 -11 -53 -9 -165 20 -794 18 -403 36 -759 41 -792 4 -33 6 -62 4 -64 -2
-3 -212 17 -467 44 -533 55 -577 55 -683 4 -125 -59 -216 -176 -242 -309 -6
-30 -46 -390 -88 -800 -85 -819 -84 -807 -30 -922 31 -66 92 -137 150 -178 88
-60 116 -64 932 -149 673 -71 777 -80 833 -70 178 28 323 168 359 344 6 28 34
277 62 555 28 278 54 513 58 523 4 11 85 -243 216 -680 115 -384 220 -722 232
-751 13 -28 46 -77 75 -107 103 -109 204 -151 343 -143 69 5 189 38 797 221
394 118 743 228 775 243 164 77 269 279 236 456 -12 63 -414 1409 -449 1501
-38 103 -136 197 -248 239 -49 19 -78 23 -160 22 -91 -1 -115 -6 -264 -52 -91
-28 -166 -50 -168 -49 -1 2 9 31 22 64 14 34 28 88 31 120 9 98 -63 1548 -81
1618 -40 153 -158 268 -320 311 -65 18 -89 17 -900 -21z m855 -281 c24 -10 48
-29 60 -49 20 -32 23 -78 56 -794 35 -744 35 -762 17 -798 -38 -78 -6 -73
-782 -110 -383 -18 -733 -32 -779 -31 -82 3 -84 4 -117 39 -24 27 -34 49 -39
85 -3 27 -20 375 -38 773 -32 721 -32 723 -13 759 40 74 7 69 781 106 847 41
804 40 854 20z m-2071 -2040 c799 -83 771 -78 807 -152 17 -36 16 -47 -60
-787 -43 -412 -83 -761 -88 -775 -14 -38 -48 -69 -85 -79 -25 -7 -229 11 -783
69 -824 86 -798 81 -834 154 l-19 38 77 742 c47 455 83 757 92 783 19 53 63
83 124 83 24 0 371 -34 769 -76z m2967 20 c21 -10 42 -31 53 -53 23 -46 441
-1440 441 -1470 0 -34 -29 -88 -56 -106 -14 -9 -345 -113 -737 -231 -788 -238
-779 -236 -838 -177 -26 25 -55 113 -245 743 -124 409 -216 733 -217 757 0 46
20 84 59 109 34 23 1430 443 1472 443 19 1 50 -6 68 -15z m-1276 -23 c-8 -5
-80 -28 -160 -51 -197 -57 -272 -94 -340 -167 -30 -32 -59 -67 -65 -77 -7 -12
-9 6 -7 66 3 62 -2 99 -16 146 l-20 62 62 1 c50 1 493 23 546 27 13 1 13 0 0
-7z"/>
<path d="M2281 4419 c-167 -9 -214 -23 -264 -78 -59 -65 -61 -83 -47 -365 13
-282 19 -305 90 -345 73 -41 163 -14 201 60 20 40 20 49 11 228 -5 102 -6 189
-3 192 3 4 93 11 199 17 167 8 197 12 220 29 92 69 94 190 3 250 -31 21 -45
23 -150 22 -64 -1 -181 -6 -260 -10z"/>
<path d="M745 2438 c-48 -17 -94 -56 -116 -100 -21 -42 -36 -142 -60 -416 -13
-137 -12 -146 6 -180 28 -49 65 -74 122 -79 39 -4 55 0 82 19 66 45 70 58 93
264 11 104 21 191 23 192 2 2 72 -3 157 -12 210 -22 248 -21 289 7 93 62 88
193 -9 250 -23 13 -90 24 -259 42 -252 27 -284 28 -328 13z"/>
<path d="M3565 2213 c-61 -15 -454 -137 -475 -148 -14 -7 -39 -28 -57 -47 -74
-77 -72 -130 16 -415 37 -122 76 -233 85 -248 25 -38 98 -69 144 -60 75 14
122 70 122 145 0 22 -23 115 -51 207 -28 91 -47 169 -42 172 4 4 87 31 183 60
149 44 180 57 209 86 63 62 51 179 -23 224 -35 21 -81 31 -111 24z"/>
</g>
</svg>
