<?xml version="1.0" standalone="no"?>
<!DOCTYPE svg PUBLIC "-//W3C//DTD SVG 20010904//EN"
 "http://www.w3.org/TR/2001/REC-SVG-20010904/DTD/svg10.dtd">
<svg version="1.0" xmlns="http://www.w3.org/2000/svg"
 width="512.000000pt" height="512.000000pt" viewBox="0 0 512.000000 512.000000"
 preserveAspectRatio="xMidYMid meet">

<g transform="translate(0.000000,512.000000) scale(0.100000,-0.100000)"
fill="#000000" stroke="none">
<path d="M4030 4973 c-194 -32 -365 -173 -436 -359 -39 -101 -45 -254 -14
-356 30 -100 73 -172 144 -243 138 -136 338 -194 523 -150 199 47 361 202 418
400 23 79 23 221 0 300 -78 273 -360 454 -635 408z"/>
<path d="M726 4446 c-44 -12 -81 -27 -83 -33 -2 -6 77 -309 176 -672 100 -364
181 -663 181 -666 0 -3 254 -5 565 -5 l566 0 -3 103 -3 102 -481 3 -481 2
-153 563 c-84 309 -157 577 -162 595 -11 38 -15 38 -122 8z"/>
<path d="M4033 3810 c-64 -13 -170 -61 -269 -121 -199 -123 -381 -169 -661
-169 -162 0 -257 9 -466 42 -118 19 -144 20 -185 10 -65 -17 -121 -59 -157
-117 -27 -44 -30 -57 -30 -129 1 -90 12 -119 67 -175 47 -48 95 -67 233 -90
365 -61 705 -63 958 -6 56 13 57 13 57 -8 0 -12 -18 -194 -41 -403 l-42 -382
-96 -7 c-411 -28 -660 -121 -771 -287 -91 -137 -267 -666 -434 -1309 -50 -190
-55 -249 -27 -317 67 -166 278 -232 413 -128 82 61 100 97 152 292 121 451
302 995 364 1092 8 13 36 34 61 46 117 59 295 78 696 74 309 -3 340 1 459 52
56 24 131 92 157 142 36 70 47 144 120 798 66 602 71 659 60 714 -18 89 -64
167 -140 239 -131 123 -313 179 -478 147z"/>
<path d="M4783 3252 c-8 -5 -23 -169 -47 -512 -20 -278 -41 -548 -47 -600 -34
-294 -161 -460 -400 -526 -53 -15 -122 -19 -414 -23 l-350 -6 0 -165 0 -165
263 -3 262 -2 0 -344 0 -344 -122 -4 c-112 -3 -129 -7 -188 -34 -85 -40 -153
-108 -191 -189 -29 -60 -50 -157 -41 -183 2 -8 39 -12 118 -12 l114 0 5 28 c9
45 38 94 68 116 27 20 42 21 389 24 344 3 362 2 402 -17 44 -22 75 -64 86
-115 l6 -31 114 0 115 0 -2 60 c-5 128 -115 277 -241 326 -43 17 -86 23 -174
27 l-118 4 0 362 0 362 83 12 c250 39 413 217 500 544 51 191 64 296 113 937
28 376 32 466 22 472 -16 11 -309 11 -325 1z"/>
<path d="M0 2840 l0 -140 110 0 110 0 2 -1267 3 -1268 920 0 920 0 3 1268 2
1267 270 0 270 0 0 140 0 140 -1305 0 -1305 0 0 -140z"/>
</g>
</svg>
