<?xml version="1.0" standalone="no"?>
<!DOCTYPE svg PUBLIC "-//W3C//DTD SVG 20010904//EN"
 "http://www.w3.org/TR/2001/REC-SVG-20010904/DTD/svg10.dtd">
<svg version="1.0" xmlns="http://www.w3.org/2000/svg"
 width="512.000000pt" height="512.000000pt" viewBox="0 0 512.000000 512.000000"
 preserveAspectRatio="xMidYMid meet">

<g transform="translate(0.000000,512.000000) scale(0.100000,-0.100000)"
fill="#000000" stroke="none">
<path d="M882 5107 c-50 -19 -102 -65 -123 -111 -24 -53 -24 -139 0 -191 20
-45 79 -102 115 -111 29 -7 25 20 66 -468 34 -399 41 -429 104 -466 29 -18 35
-28 40 -68 3 -26 47 -528 97 -1116 96 -1136 93 -1120 147 -1158 17 -12 23 -62
56 -458 20 -245 41 -472 46 -504 10 -62 41 -118 76 -136 14 -8 29 -40 48 -98
38 -117 59 -156 103 -189 l36 -28 867 0 867 0 36 28 c44 33 65 72 103 189 19
58 34 90 48 98 35 18 66 74 76 136 5 32 26 259 46 504 33 396 39 446 56 458
54 38 51 22 147 1158 50 588 94 1090 97 1116 5 40 11 50 40 68 63 37 70 67
104 466 41 488 37 461 66 468 36 9 95 66 115 111 24 52 24 138 0 191 -22 49
-78 97 -130 113 -56 16 -3303 14 -3349 -2z m3328 -157 c11 -11 20 -33 20 -50
0 -17 -9 -39 -20 -50 -20 -20 -33 -20 -1650 -20 -1617 0 -1630 0 -1650 20 -11
11 -20 33 -20 50 0 17 9 39 20 50 20 20 33 20 1650 20 1617 0 1630 0 1650 -20z
m-144 -312 c-4 -24 -17 -180 -31 -348 -14 -168 -27 -329 -31 -357 l-5 -53
-324 0 c-343 0 -364 -3 -384 -47 -16 -34 -14 -47 10 -77 l20 -26 284 0 284 0
-5 -47 c-3 -27 -45 -517 -94 -1090 -48 -573 -91 -1047 -95 -1052 -4 -7 -85
-11 -234 -11 -216 0 -230 -1 -255 -21 -34 -27 -36 -79 -4 -109 20 -19 34 -20
220 -20 152 0 198 -3 198 -12 -1 -61 -79 -908 -84 -917 -10 -16 -1942 -16
-1952 0 -5 9 -83 856 -84 917 0 9 157 12 750 12 l751 0 24 25 c30 29 32 64 6
96 l-19 24 -794 5 -793 5 -8 50 c-4 28 -46 502 -92 1055 -46 553 -87 1024 -89
1048 l-6 42 920 0 c907 0 920 0 940 20 27 27 26 81 -1 106 -20 18 -53 19 -994
22 l-974 2 -5 53 c-4 28 -17 189 -31 357 -14 168 -27 324 -31 348 l-5 42 1511
0 1511 0 -5 -42z m-637 -4355 c0 -5 -10 -35 -22 -68 l-22 -60 -825 0 -825 0
-22 60 c-12 33 -22 63 -22 68 -1 4 391 7 869 7 479 0 870 -3 869 -7z"/>
</g>
</svg>
