<?xml version="1.0" standalone="no"?>
<!DOCTYPE svg PUBLIC "-//W3C//DTD SVG 20010904//EN"
 "http://www.w3.org/TR/2001/REC-SVG-20010904/DTD/svg10.dtd">
<svg version="1.0" xmlns="http://www.w3.org/2000/svg"
 width="512.000000pt" height="512.000000pt" viewBox="0 0 512.000000 512.000000"
 preserveAspectRatio="xMidYMid meet">

<g transform="translate(0.000000,512.000000) scale(0.100000,-0.100000)"
fill="#000000" stroke="none">
<path d="M3640 5109 c-177 -31 -337 -116 -470 -249 -100 -100 -143 -163 -190
-277 -60 -150 -76 -326 -45 -503 8 -47 18 -123 21 -170 l6 -85 -65 -28 c-78
-34 -134 -80 -175 -144 -116 -183 -61 -419 126 -543 l22 -15 -20 -53 c-11 -29
-20 -66 -20 -82 0 -60 72 -92 119 -52 12 10 35 62 57 126 45 137 41 154 -50
195 -34 15 -73 42 -88 59 -122 145 -36 367 151 389 29 3 62 14 74 24 20 16 22
25 19 121 -1 57 -10 148 -18 203 -41 254 -28 396 54 558 36 73 62 109 127 173
68 68 97 89 185 132 162 80 298 99 458 66 184 -38 354 -153 453 -307 67 -103
97 -202 128 -422 59 -408 46 -814 -41 -1243 -34 -169 -35 -164 27 -240 113
-141 39 -352 -138 -392 -28 -6 -60 -14 -70 -17 -23 -6 -147 -263 -147 -304 0
-31 34 -69 61 -69 45 0 66 23 119 130 48 97 57 110 84 116 47 10 123 51 166
90 146 132 171 358 58 521 l-30 44 26 137 c99 513 93 1103 -15 1501 -75 280
-308 509 -599 591 -87 24 -274 35 -360 19z"/>
<path d="M4194 4419 c-42 -21 -45 -50 -24 -182 27 -166 40 -319 40 -458 0
-103 2 -119 21 -143 26 -33 79 -36 110 -5 21 21 22 27 16 218 -8 259 -47 532
-80 559 -20 17 -60 22 -83 11z"/>
<path d="M3483 4290 c-99 -51 -155 -160 -133 -264 20 -96 113 -186 192 -186
68 0 97 83 44 124 -85 66 -90 72 -89 112 2 56 37 84 107 84 42 0 57 5 74 23
27 29 28 67 3 98 -27 34 -138 39 -198 9z"/>
<path d="M3915 3840 c-35 -13 -45 -34 -60 -121 -8 -46 -24 -128 -36 -182 -25
-111 -19 -138 33 -156 44 -16 84 8 98 58 23 86 50 230 56 296 6 61 4 72 -12
86 -25 22 -55 29 -79 19z"/>
<path d="M4204 3289 c-12 -14 -30 -77 -54 -200 -31 -154 -34 -183 -24 -209 24
-56 105 -53 129 4 14 33 57 234 70 328 6 42 4 50 -18 72 -32 32 -77 34 -103 5z"/>
<path d="M3383 3265 c-22 -9 -34 -24 -43 -52 -7 -21 -37 -100 -66 -176 -30
-77 -54 -145 -54 -153 0 -25 47 -64 78 -64 41 0 63 30 109 145 72 178 87 232
73 265 -16 38 -56 52 -97 35z"/>
<path d="M2697 2703 c-8 -10 -38 -52 -65 -93 -154 -237 -411 -478 -659 -620
l-71 -41 -42 30 c-64 46 -133 66 -231 66 -78 0 -91 -3 -161 -38 -96 -47 -168
-122 -199 -207 -17 -46 -26 -60 -48 -65 -14 -4 -136 -11 -271 -15 -204 -7
-257 -12 -320 -30 -153 -44 -284 -124 -392 -239 -164 -175 -249 -407 -234
-641 7 -127 28 -205 86 -325 109 -225 309 -390 555 -457 73 -20 104 -22 340
-22 280 0 437 14 680 60 148 28 182 39 195 65 25 46 -3 108 -50 111 -14 1 -86
-11 -160 -25 -205 -40 -363 -57 -600 -64 -242 -6 -351 6 -462 53 -192 81 -335
236 -404 439 -25 71 -28 95 -28 210 0 122 2 136 33 227 76 223 226 374 448
451 85 29 96 31 323 38 292 9 383 22 410 57 11 13 20 37 20 52 0 14 12 51 28
81 77 153 278 184 396 60 48 -50 74 -49 173 4 312 169 582 415 775 709 63 96
70 129 38 164 -26 27 -80 29 -103 5z"/>
<path d="M3691 2454 c-30 -39 -26 -59 23 -112 57 -62 66 -81 66 -140 0 -124
-119 -193 -243 -142 -48 20 -57 21 -83 9 -16 -8 -33 -27 -38 -42 -15 -41 9
-77 69 -107 42 -21 64 -25 135 -25 72 0 93 4 136 27 65 34 134 111 157 174 23
64 22 161 -2 223 -50 132 -166 203 -220 135z"/>
<path d="M2795 2268 c-11 -5 -40 -34 -65 -65 -74 -90 -248 -253 -363 -339 -59
-44 -168 -116 -242 -159 -103 -60 -137 -84 -142 -103 -9 -38 8 -74 43 -88 28
-12 37 -10 90 15 223 105 532 350 725 574 69 80 78 121 33 156 -29 23 -48 25
-79 9z"/>
<path d="M3998 1803 c-10 -2 -43 -41 -74 -86 -32 -45 -92 -128 -135 -184 -43
-55 -81 -112 -84 -125 -4 -16 2 -36 21 -63 63 -93 72 -176 28 -263 -68 -137
-236 -169 -363 -71 -40 32 -64 23 -168 -59 -302 -240 -642 -437 -968 -561
-159 -60 -174 -68 -187 -96 -15 -34 -1 -75 34 -95 26 -14 33 -13 110 14 381
134 800 369 1102 619 l29 23 56 -22 c196 -78 410 6 500 196 23 48 26 68 26
155 0 82 -4 110 -24 157 l-23 57 80 109 c106 144 142 201 142 228 0 44 -55 80
-102 67z"/>
<path d="M1295 1419 c-27 -5 -119 -13 -204 -17 -143 -8 -156 -11 -173 -32 -24
-30 -23 -75 3 -101 21 -21 28 -22 178 -16 274 11 341 31 341 103 0 23 -8 38
-26 53 -29 22 -41 24 -119 10z"/>
<path d="M2994 1183 c-130 -103 -320 -230 -464 -308 -58 -32 -111 -65 -117
-73 -23 -28 -16 -78 13 -101 15 -12 34 -21 42 -21 25 0 218 107 357 197 237
155 385 279 385 322 0 34 -39 71 -74 71 -26 0 -55 -18 -142 -87z"/>
<path d="M378 1060 c-28 -17 -52 -107 -52 -200 0 -186 88 -346 248 -451 68
-45 114 -51 146 -19 22 22 26 60 10 90 -5 10 -33 31 -63 48 -139 78 -215 241
-185 399 15 80 13 100 -9 125 -17 19 -67 24 -95 8z"/>
<path d="M1820 854 c-114 -28 -323 -61 -474 -73 -96 -7 -112 -11 -128 -31 -24
-30 -23 -75 3 -101 21 -21 28 -22 138 -15 224 12 588 81 629 119 32 29 30 79
-4 106 -32 26 -44 25 -164 -5z"/>
</g>
</svg>
