<?xml version="1.0" standalone="no"?>
<!DOCTYPE svg PUBLIC "-//W3C//DTD SVG 20010904//EN"
 "http://www.w3.org/TR/2001/REC-SVG-20010904/DTD/svg10.dtd">
<svg version="1.0" xmlns="http://www.w3.org/2000/svg"
 width="512.000000pt" height="574.000000pt" viewBox="0 0 512.000000 574.000000"
 preserveAspectRatio="xMidYMid meet">

<g transform="translate(0.000000,574.000000) scale(0.100000,-0.100000)"
fill="#000000" stroke="none">
<path d="M2235 5725 c-256 -56 -461 -251 -531 -505 -24 -88 -24 -262 0 -350
65 -238 259 -432 496 -497 103 -28 283 -24 382 9 236 78 409 260 468 494 80
311 -76 650 -361 787 -149 72 -308 94 -454 62z"/>
<path d="M2758 3871 c-80 -3 -149 -8 -152 -11 -3 -3 29 -128 70 -277 67 -243
74 -275 65 -310 -9 -32 -154 -245 -208 -305 -51 -57 -177 -77 -249 -40 -48 25
-72 51 -163 175 -98 134 -111 157 -111 197 0 20 32 150 70 289 39 140 69 254
68 255 -6 4 -644 -23 -704 -29 -77 -8 -207 -53 -281 -96 -118 -70 -248 -217
-298 -335 -19 -46 -446 -1211 -453 -1237 -4 -16 17 -17 379 -15 l383 3 80 200
81 200 3 -202 2 -203 1040 0 1040 0 2 276 3 276 180 -276 180 -276 413 3 413
2 230 423 c245 451 266 501 254 595 -32 243 -281 379 -502 275 -85 -40 -119
-86 -268 -361 -77 -141 -142 -257 -145 -257 -3 0 -95 165 -205 367 -110 202
-221 394 -248 427 -99 124 -243 218 -393 256 -82 21 -236 24 -576 11z"/>
<path d="M2365 3851 c-19 -8 -53 -116 -162 -521 -5 -19 153 -240 171 -240 16
0 38 25 118 135 l65 90 -72 255 c-90 325 -78 297 -120 281z"/>
<path d="M135 1926 c-43 -18 -92 -78 -105 -127 -7 -26 -10 -129 -8 -287 3
-242 3 -248 28 -290 15 -27 42 -54 70 -70 l45 -27 2185 -3 c1574 -2 2198 0
2230 8 58 15 105 51 130 100 18 36 20 59 20 300 0 316 -7 343 -102 391 -36 18
-98 19 -2250 19 -1806 -1 -2219 -3 -2243 -14z"/>
<path d="M307 933 c-4 -3 -7 -215 -7 -470 l0 -463 2075 0 2075 0 0 470 0 470
-2068 0 c-1138 0 -2072 -3 -2075 -7z"/>
</g>
</svg>
