<?xml version="1.0" standalone="no"?>
<!DOCTYPE svg PUBLIC "-//W3C//DTD SVG 20010904//EN"
 "http://www.w3.org/TR/2001/REC-SVG-20010904/DTD/svg10.dtd">
<svg version="1.0" xmlns="http://www.w3.org/2000/svg"
 width="512.000000pt" height="512.000000pt" viewBox="0 0 512.000000 512.000000"
 preserveAspectRatio="xMidYMid meet">

<g transform="translate(0.000000,512.000000) scale(0.100000,-0.100000)"
fill="#000000" stroke="none">
<path d="M2347 5105 c-260 -37 -509 -140 -723 -298 -87 -64 -255 -233 -314
-315 -210 -291 -310 -601 -310 -963 l0 -119 599 0 599 0 4 118 c3 102 7 125
32 178 34 77 103 144 181 181 51 24 73 28 145 28 72 0 94 -4 145 -28 78 -36
146 -104 182 -181 24 -52 28 -74 28 -146 0 -72 -4 -94 -28 -145 -15 -33 -42
-75 -60 -94 -18 -18 -220 -193 -449 -388 l-418 -355 0 -539 0 -539 600 0 600
0 1 263 0 262 225 190 c124 105 263 230 309 278 223 235 367 538 410 864 82
618 -211 1218 -754 1547 -148 89 -337 159 -521 192 -120 22 -363 27 -483 9z"/>
<path d="M2430 1184 c-266 -57 -470 -311 -470 -584 0 -324 276 -600 600 -600
276 0 528 205 585 475 43 204 -16 397 -164 546 -149 149 -347 207 -551 163z"/>
</g>
</svg>
