<?xml version="1.0" standalone="no"?>
<!DOCTYPE svg PUBLIC "-//W3C//DTD SVG 20010904//EN"
 "http://www.w3.org/TR/2001/REC-SVG-20010904/DTD/svg10.dtd">
<svg version="1.0" xmlns="http://www.w3.org/2000/svg"
 width="512.000000pt" height="512.000000pt" viewBox="0 0 512.000000 512.000000"
 preserveAspectRatio="xMidYMid meet">

<g transform="translate(0.000000,512.000000) scale(0.100000,-0.100000)"
fill="#000000" stroke="none">
<path d="M2425 4645 c-255 -55 -461 -256 -519 -505 -20 -83 -20 -227 -1 -310
52 -219 230 -413 445 -484 318 -105 667 40 815 339 50 101 68 183 68 300 0
117 -18 199 -68 300 -134 270 -449 424 -740 360z"/>
<path d="M1886 3175 c-88 -36 -164 -93 -210 -156 -23 -30 -149 -243 -281 -472
-200 -349 -242 -415 -252 -401 -6 8 -101 171 -210 361 -223 388 -258 434 -381
496 -95 47 -192 63 -286 48 -86 -14 -199 -64 -231 -103 -30 -35 -42 -92 -27
-131 6 -16 174 -313 374 -661 325 -564 370 -638 428 -697 153 -155 366 -189
563 -91 96 48 159 114 238 250 l64 111 5 -584 c5 -570 5 -584 26 -611 11 -15
33 -37 48 -48 27 -21 37 -21 799 -23 l772 -3 39 23 c79 45 76 18 76 677 l0
585 71 -120 c100 -171 174 -240 302 -284 195 -67 425 0 541 157 19 26 199 333
400 682 385 666 384 666 352 728 -33 63 -126 112 -256 134 -139 24 -298 -30
-405 -137 -50 -51 -95 -122 -265 -418 -180 -313 -207 -354 -218 -339 -7 9
-122 206 -255 436 -153 265 -259 438 -288 470 -56 62 -154 121 -224 137 -51
11 -54 11 -96 -18 -142 -98 -355 -163 -530 -163 -174 0 -356 50 -500 137 -49
29 -96 53 -106 53 -10 0 -45 -11 -77 -25z"/>
</g>
</svg>
