<?xml version="1.0" encoding="UTF-8"?>
<!DOCTYPE svg PUBLIC "-//W3C//DTD SVG 1.1//EN" "http://www.w3.org/Graphics/SVG/1.1/DTD/svg11.dtd">
<svg xmlns="http://www.w3.org/2000/svg" version="1.1" width="512px" height="512px" style="shape-rendering:geometricPrecision; text-rendering:geometricPrecision; image-rendering:optimizeQuality; fill-rule:evenodd; clip-rule:evenodd" xmlns:xlink="http://www.w3.org/1999/xlink">
<g><path style="opacity:0.973" fill="#000000" d="M 111.5,-0.5 C 117.833,-0.5 124.167,-0.5 130.5,-0.5C 156.78,7.67382 169.613,25.6738 169,53.5C 183.667,38.8333 198.333,38.8333 213,53.5C 214.5,56.5 216,59.5 217.5,62.5C 213.705,71.717 210.205,81.0504 207,90.5C 193.084,99.5716 180.418,97.9049 169,85.5C 165.714,80.3099 164.048,74.6432 164,68.5C 149.827,91.6702 129.66,99.5035 103.5,92C 78.2994,79.772 68.7994,59.9387 75,32.5C 81.5122,15.1734 93.6789,4.17338 111.5,-0.5 Z"/></g>
<g><path style="opacity:0.948" fill="#000000" d="M 453.5,15.5 C 459.731,14.3613 463.898,16.6946 466,22.5C 466.926,49.195 466.592,75.8617 465,102.5C 458.945,113.779 449.445,118.612 436.5,117C 420.197,115.065 413.697,106.231 417,90.5C 425.148,81.0865 435.314,77.7532 447.5,80.5C 448.499,70.5222 448.832,60.5222 448.5,50.5C 429.765,54.517 411.098,58.8504 392.5,63.5C 391.667,80.8237 391.167,98.1571 391,115.5C 387.446,128.217 378.946,134.551 365.5,134.5C 355.618,134.31 347.785,130.31 342,122.5C 338.468,110.072 342.968,101.905 355.5,98C 361.158,96.4079 366.825,96.2412 372.5,97.5C 373.333,78.1753 373.833,58.8419 374,39.5C 374.346,37.1523 375.513,35.3189 377.5,34C 402.938,27.8064 428.272,21.6397 453.5,15.5 Z"/></g>
<g><path style="opacity:0.979" fill="#000000" d="M 238.5,511.5 C 233.833,511.5 229.167,511.5 224.5,511.5C 215.753,507.917 209.92,501.584 207,492.5C 206.089,450.486 205.089,408.486 204,366.5C 195.138,345.581 186.471,324.581 178,303.5C 177.275,302.941 176.442,302.608 175.5,302.5C 169.787,303.678 164.12,305.012 158.5,306.5C 156.292,338.203 153.792,369.87 151,401.5C 130.564,436.263 109.731,470.763 88.5,505C 85.0671,507.711 81.4005,509.877 77.5,511.5C 72.8333,511.5 68.1667,511.5 63.5,511.5C 48.7586,505.355 42.9253,494.355 46,478.5C 64.0679,447.367 82.4012,416.367 101,385.5C 103.164,360.886 104.997,336.219 106.5,311.5C 95.7308,259.821 84.8975,208.154 74,156.5C 70.857,138.618 77.357,125.784 93.5,118C 116.07,112.719 138.737,107.886 161.5,103.5C 175.102,104.293 185.102,110.627 191.5,122.5C 177.177,123.14 162.843,123.306 148.5,123C 167.687,127.422 186.854,131.922 206,136.5C 206.945,136.095 207.612,135.428 208,134.5C 216.94,109.678 226.274,85.011 236,60.5C 244.974,50.6718 255.474,48.8384 267.5,55C 277.036,64.1054 278.869,74.6054 273,86.5C 262.197,115.911 251.197,145.244 240,174.5C 235.328,181.003 228.994,184.336 221,184.5C 193.784,178.569 166.617,172.735 139.5,167C 162.125,177.264 184.791,187.43 207.5,197.5C 214.313,227.42 220.813,257.42 227,287.5C 236.529,310.42 245.862,333.42 255,356.5C 256.57,401.136 257.237,445.803 257,490.5C 254.859,501.136 248.692,508.136 238.5,511.5 Z"/></g>
<g><path style="opacity:0.944" fill="#000000" d="M 291.5,81.5 C 303.102,85.3757 306.602,93.0424 302,104.5C 299.9,107.467 297.066,109.3 293.5,110C 292.903,111.062 292.57,112.228 292.5,113.5C 310.225,217.519 328.059,321.519 346,425.5C 348.508,434.495 345.341,440.161 336.5,442.5C 331.211,442.113 327.711,439.446 326,434.5C 309,335.167 292,235.833 275,136.5C 274.333,133.5 274.333,130.5 275,127.5C 281.003,112.322 286.503,96.9882 291.5,81.5 Z"/></g>
</svg>
