<?xml version="1.0" standalone="no"?>
<!DOCTYPE svg PUBLIC "-//W3C//DTD SVG 20010904//EN"
 "http://www.w3.org/TR/2001/REC-SVG-20010904/DTD/svg10.dtd">
<svg version="1.0" xmlns="http://www.w3.org/2000/svg"
 width="512.000000pt" height="512.000000pt" viewBox="0 0 512.000000 512.000000"
 preserveAspectRatio="xMidYMid meet">

<g transform="translate(0.000000,512.000000) scale(0.100000,-0.100000)"
fill="#000000" stroke="none">
<path d="M2232 5080 c-40 -25 -72 -75 -72 -116 0 -26 210 -551 276 -689 47
-100 201 -100 248 -1 66 138 276 664 276 690 0 41 -32 91 -72 116 -31 19 -51
20 -328 20 -277 0 -297 -1 -328 -20z"/>
<path d="M1897 4523 c-48 -14 -86 -29 -85 -33 2 -4 140 -338 307 -741 l304
-734 137 0 136 0 302 730 c166 402 302 735 302 742 0 11 -94 44 -166 59 l-29
6 -59 -144 c-127 -307 -160 -360 -264 -427 -129 -81 -315 -81 -444 0 -104 67
-137 120 -263 427 -41 99 -64 142 -74 141 -9 0 -56 -12 -104 -26z"/>
<path d="M1461 4339 c-274 -149 -544 -382 -730 -628 -127 -170 -250 -379 -226
-388 6 -2 338 -139 739 -306 l730 -302 94 95 c51 52 94 95 95 96 7 3 -610
1474 -618 1474 -5 0 -43 -18 -84 -41z"/>
<path d="M3260 3644 c-168 -406 -304 -737 -303 -738 1 -1 44 -44 96 -96 l94
-96 729 303 c401 166 734 304 739 306 23 9 -99 218 -226 387 -150 199 -374
408 -576 538 -95 60 -223 132 -238 132 -6 0 -147 -331 -315 -736z"/>
<path d="M351 2957 c-121 -437 -121 -837 0 -1274 17 -63 35 -113 39 -111 5 2
338 140 742 307 l733 304 0 137 0 137 -734 304 c-403 167 -737 305 -741 307
-4 2 -22 -48 -39 -111z"/>
<path d="M3990 2762 l-735 -306 0 -136 0 -136 740 -306 c406 -169 740 -306
742 -304 8 8 73 266 87 346 49 287 44 609 -14 878 -20 92 -72 272 -79 271 -3
-1 -337 -139 -741 -307z"/>
<path d="M2450 2724 c-308 -82 -412 -474 -186 -700 241 -240 651 -107 709 230
51 296 -230 548 -523 470z m178 -284 c97 -59 92 -191 -9 -242 -66 -34 -138
-12 -179 54 -71 117 71 259 188 188z"/>
<path d="M1244 1623 c-401 -167 -733 -304 -739 -306 -24 -9 99 -218 226 -388
171 -226 433 -458 678 -598 60 -34 117 -65 127 -67 17 -4 59 92 322 728 167
403 302 737 300 741 -2 5 -44 50 -94 100 l-90 92 -730 -302z"/>
<path d="M3050 1829 l-95 -96 302 -729 c166 -401 304 -733 306 -739 6 -14 132
52 257 133 254 165 485 397 658 658 72 108 150 250 142 257 -3 3 -1395 582
-1470 611 -3 1 -48 -41 -100 -95z"/>
<path d="M2119 891 c-167 -404 -305 -737 -307 -741 -3 -7 169 -58 270 -80 276
-60 624 -63 903 -10 128 25 327 80 323 90 -2 4 -140 338 -307 741 l-305 734
-136 0 -137 0 -304 -734z"/>
</g>
</svg>
