<?xml version="1.0" standalone="no"?>
<!DOCTYPE svg PUBLIC "-//W3C//DTD SVG 20010904//EN"
 "http://www.w3.org/TR/2001/REC-SVG-20010904/DTD/svg10.dtd">
<svg version="1.0" xmlns="http://www.w3.org/2000/svg"
 width="512.000000pt" height="512.000000pt" viewBox="0 0 512.000000 512.000000"
 preserveAspectRatio="xMidYMid meet">

<g transform="translate(0.000000,512.000000) scale(0.100000,-0.100000)"
fill="#000000" stroke="none">
<path d="M1210 4895 l0 -225 70 0 c39 0 70 -3 70 -7 1 -5 9 -105 19 -223 10
-118 17 -218 14 -222 -2 -5 -42 -8 -89 -8 l-84 0 0 -225 0 -225 69 0 69 0 6
-47 c3 -27 10 -111 16 -188 6 -77 13 -157 15 -177 l5 -38 -90 0 -90 0 0 -225
0 -225 69 0 70 0 6 -52 c6 -58 225 -2770 225 -2794 0 -12 80 -14 560 -14 l560
0 0 75 0 75 -490 0 c-385 0 -490 3 -490 13 0 6 -49 613 -109 1347 -60 734
-107 1338 -104 1343 2 4 474 7 1049 7 l1044 0 0 -27 c0 -16 -10 -151 -22 -300
l-22 -273 -255 0 -256 0 -133 -133 -132 -132 0 -415 0 -415 133 -133 132 -132
203 0 202 0 -4 -22 c-3 -13 -18 -182 -33 -375 l-27 -353 -118 0 -118 0 0 -75
0 -75 187 2 188 3 115 1425 115 1425 78 3 77 3 0 224 0 225 -96 0 -97 0 6 53
c3 28 11 130 18 225 l13 172 78 0 78 0 0 225 0 225 -95 0 -95 0 1 28 c0 15 8
117 17 227 l17 200 78 3 77 3 0 224 0 225 -1055 0 -1055 0 0 -75 0 -75 980 0
980 0 0 -75 0 -75 -1200 0 -1200 0 0 75 0 75 145 0 145 0 0 75 0 75 -220 0
-220 0 0 -225z m2390 -259 c0 -49 -29 -399 -35 -413 -3 -10 -40 -13 -135 -13
l-131 0 3 -72 3 -73 228 -3 227 -2 0 -75 0 -75 -1200 0 -1200 0 0 75 0 75 895
0 895 0 0 75 0 75 -805 0 c-443 0 -805 1 -805 3 -11 94 -36 444 -33 450 2 4
474 7 1049 7 l1044 0 0 -34z m0 -913 c0 -21 -7 -114 -15 -208 -8 -93 -15 -178
-15 -187 0 -17 -45 -18 -810 -18 l-810 0 0 -75 0 -75 905 0 905 0 0 -75 0 -75
-1200 0 -1200 0 0 75 0 75 220 0 220 0 0 75 0 75 -129 0 -130 0 -5 43 c-3 23
-10 107 -16 187 -6 80 -13 162 -16 183 l-6 37 1051 0 1051 0 0 -37z m-60
-1645 c0 -18 -18 -251 -40 -518 -22 -267 -40 -491 -40 -497 0 -10 -41 -13
-173 -13 l-174 0 -91 93 -92 92 0 345 1 345 89 93 89 92 215 0 216 0 0 -32z"/>
<path d="M1807 4513 c-4 -3 -7 -37 -7 -75 l0 -68 75 0 75 0 0 75 0 75 -68 0
c-38 0 -72 -3 -75 -7z"/>
<path d="M2107 4513 c-4 -3 -7 -37 -7 -75 l0 -68 75 0 75 0 0 75 0 75 -68 0
c-38 0 -72 -3 -75 -7z"/>
<path d="M3080 1735 l0 -75 75 0 75 0 0 75 0 75 -75 0 -75 0 0 -75z"/>
<path d="M3080 1435 l0 -75 75 0 75 0 0 75 0 75 -75 0 -75 0 0 -75z"/>
<path d="M1800 2635 l0 -75 75 0 75 0 0 75 0 75 -75 0 -75 0 0 -75z"/>
<path d="M2100 2635 l0 -75 75 0 75 0 0 75 0 75 -75 0 -75 0 0 -75z"/>
<path d="M2850 75 l0 -75 75 0 75 0 0 75 0 75 -75 0 -75 0 0 -75z"/>
</g>
</svg>
