<?xml version="1.0" standalone="no"?>
<!DOCTYPE svg PUBLIC "-//W3C//DTD SVG 20010904//EN"
 "http://www.w3.org/TR/2001/REC-SVG-20010904/DTD/svg10.dtd">
<svg version="1.0" xmlns="http://www.w3.org/2000/svg"
 width="512.000000pt" height="512.000000pt" viewBox="0 0 512.000000 512.000000"
 preserveAspectRatio="xMidYMid meet">

<g transform="translate(0.000000,512.000000) scale(0.100000,-0.100000)"
fill="#000000" stroke="none">
<path d="M2405 5103 c-342 -73 -595 -384 -595 -731 0 -210 97 -505 234 -710
99 -149 236 -268 361 -314 84 -31 226 -31 310 0 216 79 423 339 529 665 102
310 83 550 -59 767 -80 122 -212 232 -343 285 -131 53 -299 68 -437 38z"/>
<path d="M1286 4787 c-113 -70 -265 -175 -326 -224 -431 -343 -749 -840 -883
-1378 -58 -232 -71 -349 -71 -615 0 -176 4 -264 17 -350 33 -210 76 -380 138
-542 l30 -77 131 55 c73 30 134 57 136 59 3 3 -16 67 -41 142 -322 973 51
2045 903 2594 58 37 113 74 122 81 16 12 11 24 -54 141 -40 70 -74 127 -77
126 -3 0 -15 -6 -25 -12z"/>
<path d="M3732 4673 c-65 -117 -70 -129 -54 -141 9 -6 71 -48 137 -91 598
-393 971 -1056 1002 -1781 11 -268 -28 -542 -114 -803 -25 -75 -44 -139 -42
-142 3 -2 64 -29 137 -59 l131 -54 30 78 c94 242 147 515 158 805 30 847 -370
1659 -1062 2157 -78 55 -238 158 -248 158 -2 0 -35 -57 -75 -127z"/>
<path d="M1875 3294 c-22 -20 -105 -83 -185 -142 -203 -148 -272 -205 -376
-315 -275 -287 -404 -661 -404 -1172 l0 -132 46 -7 c96 -13 301 -6 416 14 426
74 811 344 1091 768 40 60 78 118 85 128 12 19 12 19 25 0 6 -10 42 -64 78
-120 185 -284 435 -514 709 -651 104 -52 286 -110 406 -129 103 -16 313 -21
398 -10 l46 7 0 132 c0 337 -56 611 -175 850 -107 217 -272 394 -560 604 -94
68 -194 144 -223 169 l-53 44 -57 -56 c-116 -112 -255 -195 -387 -231 -150
-40 -333 -28 -484 33 -86 34 -222 126 -291 196 -30 31 -57 56 -60 56 -3 -1
-23 -17 -45 -36z"/>
<path d="M2475 1848 c-168 -191 -358 -339 -578 -450 -66 -33 -116 -63 -111
-67 5 -5 52 -28 104 -51 212 -97 466 -263 622 -408 l46 -43 94 78 c177 149
396 287 591 374 53 23 97 46 97 51 0 4 -51 33 -112 64 -212 105 -399 249 -565
433 -53 58 -98 107 -102 108 -3 2 -42 -38 -86 -89z"/>
<path d="M540 1210 c-41 -4 -115 -13 -163 -20 l-89 -12 7 -52 c36 -281 170
-583 338 -763 l59 -63 -346 0 -346 0 0 -150 0 -150 2560 0 2560 0 0 150 0 150
-346 0 -345 0 69 78 c126 144 197 267 257 446 30 88 81 343 71 353 -2 2 -55
10 -117 18 -338 41 -649 24 -959 -55 -170 -43 -278 -83 -446 -165 -250 -122
-454 -272 -647 -475 l-97 -102 -112 117 c-299 312 -658 523 -1068 628 -256 67
-579 92 -840 67z"/>
</g>
</svg>
